REM DIRINDEX 1\2\4,1\2\5,1\2\6,1\3\7,1\3\8,1\3\9,1\3\10
REM DIRNAME cjc058,folder01,folder02,folder03,folder04,folder05,folder06,folder07,folder08,folder09
TITLE ""
FILE "b_29.mp3" MP3
  TRACK 01 AUDIO
    TITLE "0:"
    INDEX 01 00:00:00
  TRACK 02 AUDIO
    TITLE "10:cjc058_2971"
    INDEX 01 00:00:13
  TRACK 03 AUDIO
    TITLE "0:"
    INDEX 01 00:04:11
  TRACK 04 AUDIO
    TITLE "7:cjc058_2972"
    INDEX 01 00:04:52
  TRACK 05 AUDIO
    TITLE "0:"
    INDEX 01 00:07:11
  TRACK 06 AUDIO
    TITLE "8:cjc058_2973"
    INDEX 01 00:07:41
  TRACK 07 AUDIO
    TITLE "0:"
    INDEX 01 00:10:37
  TRACK 08 AUDIO
    TITLE "9:cjc058_2974"
    INDEX 01 00:10:74
  TRACK 09 AUDIO
    TITLE "0:"
    INDEX 01 00:13:73
  TRACK 10 AUDIO
    TITLE "7:cjc058_2975"
    INDEX 01 00:14:72
  TRACK 11 AUDIO
    TITLE "0:"
    INDEX 01 00:17:02
  TRACK 12 AUDIO
    TITLE "8:cjc058_2976"
    INDEX 01 00:17:33
  TRACK 13 AUDIO
    TITLE "0:"
    INDEX 01 00:20:12
  TRACK 14 AUDIO
    TITLE "9:cjc058_2977"
    INDEX 01 00:20:49
  TRACK 15 AUDIO
    TITLE "0:"
    INDEX 01 00:24:10
  TRACK 16 AUDIO
    TITLE "7:cjc058_2978"
    INDEX 01 00:25:15
  TRACK 17 AUDIO
    TITLE "0:"
    INDEX 01 00:27:28
  TRACK 18 AUDIO
    TITLE "8:cjc058_2979"
    INDEX 01 00:27:59
  TRACK 19 AUDIO
    TITLE "0:"
    INDEX 01 00:32:17
  TRACK 20 AUDIO
    TITLE "9:cjc058_2980"
    INDEX 01 00:32:58
  TRACK 21 AUDIO
    TITLE "0:"
    INDEX 01 00:35:23
  TRACK 22 AUDIO
    TITLE "7:cjc058_2981"
    INDEX 01 00:36:27
  TRACK 23 AUDIO
    TITLE "0:"
    INDEX 01 00:38:69
  TRACK 24 AUDIO
    TITLE "8:cjc058_2982"
    INDEX 01 00:39:23
  TRACK 25 AUDIO
    TITLE "0:"
    INDEX 01 00:41:51
  TRACK 26 AUDIO
    TITLE "9:cjc058_2983"
    INDEX 01 00:42:16
  TRACK 27 AUDIO
    TITLE "0:"
    INDEX 01 00:45:12
  TRACK 28 AUDIO
    TITLE "7:cjc058_2984"
    INDEX 01 00:46:19
  TRACK 29 AUDIO
    TITLE "0:"
    INDEX 01 00:48:48
  TRACK 30 AUDIO
    TITLE "8:cjc058_2985"
    INDEX 01 00:49:02
  TRACK 31 AUDIO
    TITLE "0:"
    INDEX 01 00:52:57
  TRACK 32 AUDIO
    TITLE "9:cjc058_2986"
    INDEX 01 00:53:21
  TRACK 33 AUDIO
    TITLE "0:"
    INDEX 01 00:56:29
  TRACK 34 AUDIO
    TITLE "7:cjc058_2987"
    INDEX 01 00:57:33
  TRACK 35 AUDIO
    TITLE "0:"
    INDEX 01 00:59:57
  TRACK 36 AUDIO
    TITLE "8:cjc058_2988"
    INDEX 01 01:00:08
  TRACK 37 AUDIO
    TITLE "0:"
    INDEX 01 01:02:42
  TRACK 38 AUDIO
    TITLE "9:cjc058_2989"
    INDEX 01 01:03:10
  TRACK 39 AUDIO
    TITLE "0:"
    INDEX 01 01:06:06
  TRACK 40 AUDIO
    TITLE "7:cjc058_2990"
    INDEX 01 01:07:12
  TRACK 41 AUDIO
    TITLE "0:"
    INDEX 01 01:09:34
  TRACK 42 AUDIO
    TITLE "8:cjc058_2991"
    INDEX 01 01:09:63
  TRACK 43 AUDIO
    TITLE "0:"
    INDEX 01 01:12:11
  TRACK 44 AUDIO
    TITLE "9:cjc058_2992"
    INDEX 01 01:12:54
  TRACK 45 AUDIO
    TITLE "0:"
    INDEX 01 01:15:74
  TRACK 46 AUDIO
    TITLE "7:cjc058_2993"
    INDEX 01 01:17:04
  TRACK 47 AUDIO
    TITLE "0:"
    INDEX 01 01:19:09
  TRACK 48 AUDIO
    TITLE "8:cjc058_2994"
    INDEX 01 01:19:40
  TRACK 49 AUDIO
    TITLE "0:"
    INDEX 01 01:22:11
  TRACK 50 AUDIO
    TITLE "9:cjc058_2995"
    INDEX 01 01:22:50
  TRACK 51 AUDIO
    TITLE "0:"
    INDEX 01 01:25:17
  TRACK 52 AUDIO
    TITLE "7:cjc058_2996"
    INDEX 01 01:26:21
  TRACK 53 AUDIO
    TITLE "0:"
    INDEX 01 01:28:35
  TRACK 54 AUDIO
    TITLE "8:cjc058_2997"
    INDEX 01 01:28:61
  TRACK 55 AUDIO
    TITLE "0:"
    INDEX 01 01:31:16
  TRACK 56 AUDIO
    TITLE "9:cjc058_2998"
    INDEX 01 01:31:57
  TRACK 57 AUDIO
    TITLE "0:"
    INDEX 01 01:35:37
  TRACK 58 AUDIO
    TITLE "7:cjc058_2999"
    INDEX 01 01:36:43
  TRACK 59 AUDIO
    TITLE "0:"
    INDEX 01 01:38:53
  TRACK 60 AUDIO
    TITLE "8:cjc058_3000"
    INDEX 01 01:39:04
  TRACK 61 AUDIO
    TITLE "0:"
    INDEX 01 01:41:24
  TRACK 62 AUDIO
    TITLE "9:cjc058_3001"
    INDEX 01 01:41:65
  TRACK 63 AUDIO
    TITLE "0:"
    INDEX 01 01:46:39
  TRACK 64 AUDIO
    TITLE "7:cjc058_3002"
    INDEX 01 01:47:39
  TRACK 65 AUDIO
    TITLE "0:"
    INDEX 01 01:50:11
  TRACK 66 AUDIO
    TITLE "8:cjc058_3003"
    INDEX 01 01:50:39
  TRACK 67 AUDIO
    TITLE "0:"
    INDEX 01 01:52:63
  TRACK 68 AUDIO
    TITLE "9:cjc058_3004"
    INDEX 01 01:53:25
  TRACK 69 AUDIO
    TITLE "0:"
    INDEX 01 01:57:47
  TRACK 70 AUDIO
    TITLE "7:cjc058_3005"
    INDEX 01 01:58:50
  TRACK 71 AUDIO
    TITLE "0:"
    INDEX 01 02:00:65
  TRACK 72 AUDIO
    TITLE "8:cjc058_3006"
    INDEX 01 02:01:21
  TRACK 73 AUDIO
    TITLE "0:"
    INDEX 01 02:03:67
  TRACK 74 AUDIO
    TITLE "9:cjc058_3007"
    INDEX 01 02:04:35
  TRACK 75 AUDIO
    TITLE "0:"
    INDEX 01 02:07:02
  TRACK 76 AUDIO
    TITLE "7:cjc058_3008"
    INDEX 01 02:08:07
  TRACK 77 AUDIO
    TITLE "0:"
    INDEX 01 02:10:40
  TRACK 78 AUDIO
    TITLE "8:cjc058_3009"
    INDEX 01 02:10:69
  TRACK 79 AUDIO
    TITLE "0:"
    INDEX 01 02:15:64
  TRACK 80 AUDIO
    TITLE "9:cjc058_3010"
    INDEX 01 02:16:32
  TRACK 81 AUDIO
    TITLE "0:"
    INDEX 01 02:19:70
  TRACK 82 AUDIO
    TITLE "7:cjc058_3011"
    INDEX 01 02:21:00
  TRACK 83 AUDIO
    TITLE "0:"
    INDEX 01 02:23:07
  TRACK 84 AUDIO
    TITLE "8:cjc058_3012"
    INDEX 01 02:23:38
  TRACK 85 AUDIO
    TITLE "0:"
    INDEX 01 02:25:61
  TRACK 86 AUDIO
    TITLE "9:cjc058_3013"
    INDEX 01 02:26:27
  TRACK 87 AUDIO
    TITLE "0:"
    INDEX 01 02:29:23
  TRACK 88 AUDIO
    TITLE "7:cjc058_3014"
    INDEX 01 02:30:25
  TRACK 89 AUDIO
    TITLE "0:"
    INDEX 01 02:32:51
  TRACK 90 AUDIO
    TITLE "8:cjc058_3015"
    INDEX 01 02:33:07
  TRACK 91 AUDIO
    TITLE "0:"
    INDEX 01 02:35:28
  TRACK 92 AUDIO
    TITLE "9:cjc058_3016"
    INDEX 01 02:35:71
  TRACK 93 AUDIO
    TITLE "0:"
    INDEX 01 02:39:00
  TRACK 94 AUDIO
    TITLE "7:cjc058_3017"
    INDEX 01 02:40:03
  TRACK 95 AUDIO
    TITLE "0:"
    INDEX 01 02:42:04
  TRACK 96 AUDIO
    TITLE "8:cjc058_3018"
    INDEX 01 02:42:34
  TRACK 97 AUDIO
    TITLE "0:"
    INDEX 01 02:45:32
  TRACK 98 AUDIO
    TITLE "9:cjc058_3019"
    INDEX 01 02:45:73
  TRACK 99 AUDIO
    TITLE "0:"
    INDEX 01 02:48:54
  TRACK 100 AUDIO
    TITLE "7:cjc058_3020"
    INDEX 01 02:49:59
  TRACK 101 AUDIO
    TITLE "0:"
    INDEX 01 02:51:70
  TRACK 102 AUDIO
    TITLE "8:cjc058_3021"
    INDEX 01 02:52:22
  TRACK 103 AUDIO
    TITLE "0:"
    INDEX 01 02:54:11
  TRACK 104 AUDIO
    TITLE "9:cjc058_3022"
    INDEX 01 02:54:51
  TRACK 105 AUDIO
    TITLE "0:"
    INDEX 01 02:59:67
  TRACK 106 AUDIO
    TITLE "7:cjc058_3023"
    INDEX 01 03:00:71
  TRACK 107 AUDIO
    TITLE "0:"
    INDEX 01 03:03:22
  TRACK 108 AUDIO
    TITLE "8:cjc058_3024"
    INDEX 01 03:03:51
  TRACK 109 AUDIO
    TITLE "0:"
    INDEX 01 03:07:14
  TRACK 110 AUDIO
    TITLE "9:cjc058_3025"
    INDEX 01 03:07:55
  TRACK 111 AUDIO
    TITLE "0:"
    INDEX 01 03:11:24
